<?xml version="1.0" encoding="utf-8"?>
<!-- Generator: Adobe Illustrator 16.0.0, SVG Export Plug-In . SVG Version: 6.00 Build 0)  -->
<!DOCTYPE svg PUBLIC "-//W3C//DTD SVG 1.1//EN" "http://www.w3.org/Graphics/SVG/1.1/DTD/svg11.dtd">
<svg version="1.1" id="Layer_1" xmlns="http://www.w3.org/2000/svg" xmlns:xlink="http://www.w3.org/1999/xlink" x="0px" y="0px"
	 width="89.302px" height="43.907px" viewBox="0 0 89.302 43.907" enable-background="new 0 0 89.302 43.907" xml:space="preserve">
<g>
	<path fill="#FFFFFF" d="M22.905,17.395l-0.541,3.104c-0.141,0.854-0.701,1.489-1.681,1.905c0.791,0.392,1.124,1.027,0.999,1.905
		c-0.055,0.376-0.126,0.823-0.212,1.34c-0.086,0.518-0.196,1.109-0.329,1.775c-0.157,0.799-0.588,1.501-1.293,2.104
		c-0.698,0.604-1.45,0.905-2.258,0.905H8.586l0.517-3.01h1.012l1.764-10.028h-1.012l0.553-3.01h9.029
		c0.705,0,1.297,0.251,1.775,0.752c0.485,0.51,0.729,1.105,0.729,1.787C22.952,17.089,22.937,17.246,22.905,17.395z M18.755,23.908
		h-5.02l-0.611,3.515h5.008L18.755,23.908z M19.896,17.395h-5.009l-0.623,3.503h5.021L19.896,17.395z"/>
	<path fill="#FFFFFF" d="M37.787,26.424l-0.729,4.009H26.019l2.316-13.038h-1.012l0.553-3.01h5.009l-0.541,3.01h-1l-1.763,10.028
		h5.008l0.188-0.999H37.787z"/>
	<path fill="#FFFFFF" d="M48.836,14.385l-0.541,3.01h-1l-1.763,10.028h0.999l-0.541,3.01h-4.996l0.517-3.01h1.012l1.764-10.028
		h-1.012l0.553-3.01H48.836z"/>
	<path fill="#FFFFFF" d="M64.787,14.385l-0.729,4.009h-3.01l0.188-1h-1.505l-2.315,13.038h-3.01l2.315-13.038h-1.504l-0.188,1h-3.01
		l0.729-4.009H64.787z"/>
	<path fill="#FFFFFF" d="M80.738,14.385l-0.553,3.01l-9.781,10.028h5.008l0.188-0.999h3.01l-0.729,4.009H65.866l0.517-3.01
		l9.794-10.028h-5.021l-0.176,1h-3.01l0.729-4.009H80.738z"/>
</g>
</svg>
