<?xml version="1.0" encoding="utf-8"?>
<!-- Generator: Adobe Illustrator 16.0.0, SVG Export Plug-In . SVG Version: 6.00 Build 0)  -->
<!DOCTYPE svg PUBLIC "-//W3C//DTD SVG 1.1//EN" "http://www.w3.org/Graphics/SVG/1.1/DTD/svg11.dtd">
<svg version="1.1" id="Layer_1" xmlns="http://www.w3.org/2000/svg" xmlns:xlink="http://www.w3.org/1999/xlink" x="0px" y="0px"
	 width="11.312px" height="13px" viewBox="0 0 11.312 13" enable-background="new 0 0 11.312 13" xml:space="preserve">
<g>
	<g>
		<g>
			<path fill="#A6A8AA" d="M8.597,5.692v-2.06c0-1.62-1.31-2.94-2.93-2.94c-1.52,0-2.8,1.18-2.93,2.73v2.27
				c-0.54,0.05-0.97,0.42-0.97,0.87v4.54c0,0.49,0.51,0.88,1.11,0.88h5.57c0.61,0,1.1-0.39,1.1-0.88v-4.54
				C9.546,6.112,9.137,5.752,8.597,5.692z M7.597,5.683h-3.86v-2.22c0.08-0.99,0.93-1.77,1.93-1.77c1.06,0,1.93,0.87,1.93,1.94
				V5.683z"/>
		</g>
	</g>
</g>
</svg>
