<?xml version="1.0" encoding="utf-8"?>
<!-- Generator: Adobe Illustrator 16.0.0, SVG Export Plug-In . SVG Version: 6.00 Build 0)  -->
<!DOCTYPE svg PUBLIC "-//W3C//DTD SVG 1.1//EN" "http://www.w3.org/Graphics/SVG/1.1/DTD/svg11.dtd">
<svg version="1.1" id="Layer_1" xmlns="http://www.w3.org/2000/svg" xmlns:xlink="http://www.w3.org/1999/xlink" x="0px" y="0px"
	 width="22.704px" height="22.568px" viewBox="0 0 22.704 22.568" enable-background="new 0 0 22.704 22.568" xml:space="preserve">
<path fill="#FFFFFF" d="M1.131,19.912l7.817-7.816c0.012-0.015,0.028-0.023,0.041-0.035c-0.856-1.178-1.367-2.621-1.367-4.186
	c0-3.938,3.201-7.143,7.141-7.143c3.938,0,7.141,3.204,7.141,7.143c0,3.938-3.203,7.141-7.141,7.141
	c-1.564,0-3.01-0.513-4.188-1.368c-0.012,0.013-0.021,0.028-0.033,0.042l-7.816,7.816c-0.223,0.221-0.511,0.33-0.799,0.33
	s-0.576-0.109-0.796-0.33C0.69,21.066,0.69,20.352,1.131,19.912 M14.764,13.701c3.211,0,5.824-2.613,5.824-5.826
	S17.975,2.05,14.764,2.05c-3.213,0-5.827,2.612-5.827,5.825C8.937,11.086,11.551,13.701,14.764,13.701"/>
</svg>
